<?xml version="1.0" encoding="UTF-8" standalone="no"?>
<!DOCTYPE svg PUBLIC "-//W3C//DTD SVG 1.1//EN" "http://www.w3.org/Graphics/SVG/1.1/DTD/svg11.dtd">
<svg width="100%" height="100%" viewBox="0 0 2048 2048" version="1.1" xmlns="http://www.w3.org/2000/svg" xmlns:xlink="http://www.w3.org/1999/xlink" xml:space="preserve" xmlns:serif="http://www.serif.com/" style="fill-rule:evenodd;clip-rule:evenodd;stroke-linejoin:round;stroke-miterlimit:2;">
    <rect id="Artboard1" x="0" y="0" width="2048" height="2048" style="fill:none;"/>
    <g id="Artboard11" serif:id="Artboard1">
        <g transform="matrix(1.44642,0,0,1.44642,-614.589,-443.091)">
            <g transform="matrix(1,0,0,1,90.3619,-29.6018)">
                <path d="M1228.27,1131.56L1228.27,1344.07C1228.27,1417.36 1141.93,1476.86 1035.57,1476.86C929.216,1476.86 842.869,1417.36 842.869,1344.07C842.869,1270.78 929.216,1211.28 1035.57,1211.28C1063.15,1211.28 1089.38,1215.28 1113.11,1222.49L1228.27,1131.56Z"/>
            </g>
            <g transform="matrix(1,0,0,1,90.3619,-29.6018)">
                <clipPath id="_clip1">
                    <path d="M1789.89,324.877L1789.89,1782.33L332.442,1782.33L332.442,324.877L1789.89,324.877ZM733.691,1539.14L1266.01,1100.46C1266.52,1100.04 1267.03,1099.6 1267.53,1099.16L1281.66,1083.82L1292.42,1065.72L1299.29,1045.36L1301.68,1023.46L1299.5,1002.52L1293.21,982.958L1283.33,965.41L1270.33,950.317C1268.81,948.873 733.174,508.307 733.174,508.307L736.431,511.194L721.727,499.546L704.913,490.728L686.37,485.146L666.657,483.21L646.354,485.265L627.315,491.18L610.14,500.505L595.239,512.801L582.943,527.702L573.619,544.876L567.703,563.916L565.649,584.218L565.593,1463.78L567.647,1484.08L573.563,1503.12L582.888,1520.3L595.183,1535.2L610.085,1547.5L627.259,1556.82L646.298,1562.74L666.601,1564.79L686.752,1562.77L705.665,1556.94L722.748,1547.74L737.6,1535.62L733.691,1539.14Z"/>
                </clipPath>
                <g clip-path="url(#_clip1)">
                    <path d="M1228.27,1344.07C1228.27,1417.36 1141.93,1476.86 1035.57,1476.86C929.216,1476.86 842.869,1417.36 842.869,1344.07C842.869,1270.78 929.216,1211.28 1035.57,1211.28C1063.15,1211.28 1089.38,1215.28 1113.11,1222.49L1113.11,577.131C1113.11,577.131 1235.55,545.822 1369.14,626.418C1402.15,649.45 1513.13,846.776 1496.77,850.769C1480.41,854.763 1363.77,713.022 1293.95,725.932C1233.9,731.318 1228.27,757.121 1228.27,757.121L1228.27,1344.07Z"/>
                </g>
            </g>
            <g transform="matrix(0.768908,0,0,0.768908,487.304,230.522)">
                <clipPath id="_clip2">
                    <path d="M1811.59,84.216L1811.59,1979.69L-83.885,1979.69L-83.885,84.216L1811.59,84.216ZM959.888,1158.31C949.862,1157.62 840.853,1161.16 830.566,1161.16C725.942,1161.16 633.887,1198.43 576.375,1252.47C529.736,1296.31 504.083,1351.26 504.083,1409.72C504.083,1468.18 529.736,1523.14 576.375,1566.97C633.887,1621.02 725.942,1658.28 830.566,1658.28C935.191,1658.28 1027.25,1621.02 1084.76,1566.97C1131.4,1523.14 1157.05,1468.18 1157.05,1409.72L1157.05,1190.62C1157.05,1148.72 1123.08,1114.76 1081.18,1114.76C1081.18,1114.76 964.513,1146.86 959.888,1158.31ZM1081.18,1190.62L1081.18,1409.72C1081.18,1505.03 968.886,1582.41 830.566,1582.41C692.246,1582.41 579.948,1505.03 579.948,1409.72C579.948,1314.41 692.246,1237.03 830.566,1237.03C866.433,1237.03 900.549,1242.23 931.413,1251.6L1019.85,1236.14L1081.18,1190.62Z"/>
                </clipPath>
                <g clip-path="url(#_clip2)">
                    <path d="M389.709,1604.88C379.682,1614.79 365.902,1620.91 350.703,1620.91C320.072,1620.91 295.203,1596.04 295.203,1565.41C295.203,1564.45 295.276,422.983 295.276,421.5C295.276,390.869 320.144,366 350.776,366C365.636,366 379.139,371.853 389.106,381.377C389.106,381.377 1081.59,950.697 1083.55,952.563C1094.17,962.675 1100.79,976.946 1100.79,992.751C1100.79,1009.31 1093.53,1024.18 1082.01,1034.35L389.709,1604.88Z"/>
                </g>
            </g>
        </g>
    </g>
</svg>
